<svg style="position: absolute; width: 0; height: 0;" width="0" height="0" version="1.1" xmlns="http://www.w3.org/2000/svg" xmlns:xlink="http://www.w3.org/1999/xlink">
  <defs>
    <symbol id="icon-chevron-right" viewBox="0 0 512 512">
      <path d="m389 251l-212 212c-3 3-7 5-12 5-5 0-10-2-13-5l-48-48c-3-3-5-8-5-13 0-5 2-9 5-13l152-151-152-152c-3-4-5-8-5-13 0-5 2-9 5-13l48-47c3-4 8-6 13-6 5 0 9 2 12 6l212 212c4 3 6 8 6 13 0 5-2 9-6 13z"/>
    </symbol>
    <symbol id="icon-heart" x="0px" y="0px"
    	 viewBox="0 0 471.701 471.701" style="enable-background:new 0 0 471.701 471.701;" xml:space="preserve">
      <g>
      	<path d="M433.601,67.001c-24.7-24.7-57.4-38.2-92.3-38.2s-67.7,13.6-92.4,38.3l-12.9,12.9l-13.1-13.1
      		c-24.7-24.7-57.6-38.4-92.5-38.4c-34.8,0-67.6,13.6-92.2,38.2c-24.7,24.7-38.3,57.5-38.2,92.4c0,34.9,13.7,67.6,38.4,92.3
      		l187.8,187.8c2.6,2.6,6.1,4,9.5,4c3.4,0,6.9-1.3,9.5-3.9l188.2-187.5c24.7-24.7,38.3-57.5,38.3-92.4
      		C471.801,124.501,458.301,91.701,433.601,67.001z M414.401,232.701l-178.7,178l-178.3-178.3c-19.6-19.6-30.4-45.6-30.4-73.3
      		s10.7-53.7,30.3-73.2c19.5-19.5,45.5-30.3,73.1-30.3c27.7,0,53.8,10.8,73.4,30.4l22.6,22.6c5.3,5.3,13.8,5.3,19.1,0l22.4-22.4
      		c19.6-19.6,45.7-30.4,73.3-30.4c27.6,0,53.6,10.8,73.2,30.3c19.6,19.6,30.3,45.6,30.3,73.3
      		C444.801,187.101,434.001,213.101,414.401,232.701z"/>
      </g>
    </symbol>
    <symbol id="icon-add" x="0px" y="0px"
    	 viewBox="0 0 31.444 31.444" style="enable-background:new 0 0 31.444 31.444;" xml:space="preserve">
    <path  d="M1.119,16.841c-0.619,0-1.111-0.508-1.111-1.127c0-0.619,0.492-1.111,1.111-1.111h13.475V1.127
    	C14.595,0.508,15.103,0,15.722,0c0.619,0,1.111,0.508,1.111,1.127v13.476h13.475c0.619,0,1.127,0.492,1.127,1.111
    	c0,0.619-0.508,1.127-1.127,1.127H16.833v13.476c0,0.619-0.492,1.127-1.111,1.127c-0.619,0-1.127-0.508-1.127-1.127V16.841H1.119z"
    	/>
    </symbol>
    <symbol id="icon-home" x="0px" y="0px"
    	 viewBox="0 0 512 512" style="enable-background:new 0 0 512 512;" xml:space="preserve">
      <g>
      	<g>
      		<path d="M506.555,208.064L263.859,30.367c-4.68-3.426-11.038-3.426-15.716,0L5.445,208.064
      			c-5.928,4.341-7.216,12.665-2.875,18.593s12.666,7.214,18.593,2.875L256,57.588l234.837,171.943c2.368,1.735,5.12,2.57,7.848,2.57
      			c4.096,0,8.138-1.885,10.744-5.445C513.771,220.729,512.483,212.405,506.555,208.064z"/>
      	</g>
      </g>
      <g>
      	<g>
      		<path d="M442.246,232.543c-7.346,0-13.303,5.956-13.303,13.303v211.749H322.521V342.009c0-36.68-29.842-66.52-66.52-66.52
      			s-66.52,29.842-66.52,66.52v115.587H83.058V245.847c0-7.347-5.957-13.303-13.303-13.303s-13.303,5.956-13.303,13.303v225.053
      			c0,7.347,5.957,13.303,13.303,13.303h133.029c6.996,0,12.721-5.405,13.251-12.267c0.032-0.311,0.052-0.651,0.052-1.036v-128.89
      			c0-22.009,17.905-39.914,39.914-39.914s39.914,17.906,39.914,39.914v128.89c0,0.383,0.02,0.717,0.052,1.024
      			c0.524,6.867,6.251,12.279,13.251,12.279h133.029c7.347,0,13.303-5.956,13.303-13.303V245.847
      			C455.549,238.499,449.593,232.543,442.246,232.543z"/>
      	</g>
      </g>
    </symbol>
  </defs>
</svg>
