<svg style="position: absolute; width: 0; height: 0;" width="0" height="0" version="1.1" xmlns="http://www.w3.org/2000/svg" xmlns:xlink="http://www.w3.org/1999/xlink">
  <defs>
    <symbol id="icon-chevron-right" viewBox="0 0 512 512">
      <path d="m389 251l-212 212c-3 3-7 5-12 5-5 0-10-2-13-5l-48-48c-3-3-5-8-5-13 0-5 2-9 5-13l152-151-152-152c-3-4-5-8-5-13 0-5 2-9 5-13l48-47c3-4 8-6 13-6 5 0 9 2 12 6l212 212c4 3 6 8 6 13 0 5-2 9-6 13z"/>
    </symbol>
    <symbol id="icon-back" x="0px" y="0px"
      	 viewBox="0 0 492 492" style="enable-background:new 0 0 492 492;" xml:space="preserve">
      <g>
      	<g>
      		<path d="M198.608,246.104L382.664,62.04c5.068-5.056,7.856-11.816,7.856-19.024c0-7.212-2.788-13.968-7.856-19.032l-16.128-16.12
      			C361.476,2.792,354.712,0,347.504,0s-13.964,2.792-19.028,7.864L109.328,227.008c-5.084,5.08-7.868,11.868-7.848,19.084
      			c-0.02,7.248,2.76,14.028,7.848,19.112l218.944,218.932c5.064,5.072,11.82,7.864,19.032,7.864c7.208,0,13.964-2.792,19.032-7.864
      			l16.124-16.12c10.492-10.492,10.492-27.572,0-38.06L198.608,246.104z"/>
      	</g>
      </g>
    </symbol>
    <symbol id="icon-not-found" x="0px" y="0px"
    	 width="400px" height="400px" viewBox="0 0 400 400" style="enable-background:new 0 0 400 400;" xml:space="preserve">
    <g>
    	<path d="M199.99,0C89.715,0,0.002,89.72,0.002,200c0,54.818,22.178,104.542,58.02,140.705c0.199,0.229,0.359,0.484,0.576,0.701
    		c0.219,0.222,0.475,0.375,0.705,0.576C95.459,377.82,145.18,400,199.99,400c110.289,0,200.008-89.72,200.008-200
    		S310.279,0,199.99,0z M199.99,26.231c43.201,0,82.74,15.882,113.172,42.064L68.293,313.165
    		C42.115,282.732,26.232,243.197,26.232,200C26.232,104.184,104.182,26.231,199.99,26.231z M199.99,373.77
    		c-43.193,0-82.725-15.879-113.15-42.059L331.707,86.838c26.18,30.432,42.061,69.963,42.061,113.162
    		C373.768,295.816,295.812,373.77,199.99,373.77z"/>
    </g>
  </symbol>
    <symbol id="icon-heart-bone" x="0px" y="0px"
    	 width="175.409px" height="175.409px" viewBox="0 0 175.409 175.409" style="enable-background:new 0 0 175.409 175.409;"
    	 xml:space="preserve">
    <g>
    	<g>
    		<path d="M164.043,136.456c-0.709-0.792-1.566-1.478-2.529-2.033c-6.81-3.931-19.092-1.028-27.001,1.537l-30.824-17.792
    			l30.837-17.803c7.896,2.571,20.185,5.479,26.988,1.542c0.969-0.555,1.82-1.234,2.535-2.033c2.962-3.28,3.038-6.49,2.583-8.611
    			c-1.247-5.778-7.837-9.995-11.585-11.976c0.16-4.235-0.189-12.049-4.575-16.021c-1.619-1.445-4.433-2.991-8.747-2.069
    			c-1.041,0.219-2.063,0.624-3.026,1.173c-6.81,3.921-10.438,16.021-12.165,24.146l-38.828,22.419L48.878,86.522
    			c-1.726-8.13-5.35-20.23-12.165-24.151c-0.963-0.562-1.986-0.955-3.032-1.173c-4.318-0.922-7.137,0.618-8.748,2.075
    			c-4.377,3.966-4.738,11.78-4.569,16.015c-3.747,1.974-10.344,6.18-11.591,11.976c-0.455,2.121-0.381,5.331,2.586,8.611
    			c0.706,0.792,1.561,1.479,2.53,2.033c6.809,3.938,19.095,1.029,26.995-1.542l30.836,17.803l-30.83,17.798
    			c-7.9-2.571-20.186-5.474-26.995-1.537c-0.969,0.556-1.824,1.235-2.53,2.033c-2.961,3.274-3.041,6.49-2.592,8.606
    			c1.253,5.786,7.837,10.001,11.591,11.98c-0.163,4.232,0.187,12.046,4.569,16.019c1.616,1.448,4.43,2.984,8.76,2.062
    			c1.034-0.213,2.062-0.608,3.026-1.17c6.809-3.931,10.438-16.024,12.165-24.146l38.822-22.42l38.822,22.414
    			c1.732,8.127,5.355,20.221,12.164,24.14c0.97,0.567,1.986,0.963,3.027,1.176c4.314,0.928,7.14-0.608,8.747-2.068
    			c4.386-3.973,4.741-11.774,4.581-16.019c3.748-1.968,10.338-6.183,11.591-11.969C167.093,142.952,167.005,139.736,164.043,136.456
    			z"/>
    		<path d="M87.706,88.62c0,0,53.942-28.445,50.135-65.169C134.892-5.074,103.05-4.631,87.706,9.144
    			C72.361-4.625,40.532-5.074,37.57,23.457C33.764,60.175,87.706,88.62,87.706,88.62z"/>
    	</g>
    </g>
  </symbol>
  <symbol id="icon-active-heart" x="0px" y="0px"
  	 viewBox="0 0 50 50" style="enable-background:new 0 0 50 50;" xml:space="preserve">
  <path style="fill:#D75A4A;" d="M24.85,10.126c2.018-4.783,6.628-8.125,11.99-8.125c7.223,0,12.425,6.179,13.079,13.543
  	c0,0,0.353,1.828-0.424,5.119c-1.058,4.482-3.545,8.464-6.898,11.503L24.85,48L7.402,32.165c-3.353-3.038-5.84-7.021-6.898-11.503
  	c-0.777-3.291-0.424-5.119-0.424-5.119C0.734,8.179,5.936,2,13.159,2C18.522,2,22.832,5.343,24.85,10.126z"/>
  </symbol>
    <symbol id="icon-heart" x="0px" y="0px"
    	 viewBox="0 0 471.701 471.701" style="enable-background:new 0 0 471.701 471.701;" xml:space="preserve">
      <g>
      	<path d="M433.601,67.001c-24.7-24.7-57.4-38.2-92.3-38.2s-67.7,13.6-92.4,38.3l-12.9,12.9l-13.1-13.1
      		c-24.7-24.7-57.6-38.4-92.5-38.4c-34.8,0-67.6,13.6-92.2,38.2c-24.7,24.7-38.3,57.5-38.2,92.4c0,34.9,13.7,67.6,38.4,92.3
      		l187.8,187.8c2.6,2.6,6.1,4,9.5,4c3.4,0,6.9-1.3,9.5-3.9l188.2-187.5c24.7-24.7,38.3-57.5,38.3-92.4
      		C471.801,124.501,458.301,91.701,433.601,67.001z M414.401,232.701l-178.7,178l-178.3-178.3c-19.6-19.6-30.4-45.6-30.4-73.3
      		s10.7-53.7,30.3-73.2c19.5-19.5,45.5-30.3,73.1-30.3c27.7,0,53.8,10.8,73.4,30.4l22.6,22.6c5.3,5.3,13.8,5.3,19.1,0l22.4-22.4
      		c19.6-19.6,45.7-30.4,73.3-30.4c27.6,0,53.6,10.8,73.2,30.3c19.6,19.6,30.3,45.6,30.3,73.3
      		C444.801,187.101,434.001,213.101,414.401,232.701z"/>
      </g>
    </symbol>
    <symbol id="icon-add" x="0px" y="0px"
    	 viewBox="0 0 31.444 31.444" style="enable-background:new 0 0 31.444 31.444;" xml:space="preserve">
    <path  d="M1.119,16.841c-0.619,0-1.111-0.508-1.111-1.127c0-0.619,0.492-1.111,1.111-1.111h13.475V1.127
    	C14.595,0.508,15.103,0,15.722,0c0.619,0,1.111,0.508,1.111,1.127v13.476h13.475c0.619,0,1.127,0.492,1.127,1.111
    	c0,0.619-0.508,1.127-1.127,1.127H16.833v13.476c0,0.619-0.492,1.127-1.111,1.127c-0.619,0-1.127-0.508-1.127-1.127V16.841H1.119z"
    	/>
    </symbol>
    <symbol id="icon-home" x="0px" y="0px"
    	 viewBox="0 0 512 512" style="enable-background:new 0 0 512 512;" xml:space="preserve">
      <g>
      	<g>
      		<path d="M506.555,208.064L263.859,30.367c-4.68-3.426-11.038-3.426-15.716,0L5.445,208.064
      			c-5.928,4.341-7.216,12.665-2.875,18.593s12.666,7.214,18.593,2.875L256,57.588l234.837,171.943c2.368,1.735,5.12,2.57,7.848,2.57
      			c4.096,0,8.138-1.885,10.744-5.445C513.771,220.729,512.483,212.405,506.555,208.064z"/>
      	</g>
      </g>
      <g>
      	<g>
      		<path d="M442.246,232.543c-7.346,0-13.303,5.956-13.303,13.303v211.749H322.521V342.009c0-36.68-29.842-66.52-66.52-66.52
      			s-66.52,29.842-66.52,66.52v115.587H83.058V245.847c0-7.347-5.957-13.303-13.303-13.303s-13.303,5.956-13.303,13.303v225.053
      			c0,7.347,5.957,13.303,13.303,13.303h133.029c6.996,0,12.721-5.405,13.251-12.267c0.032-0.311,0.052-0.651,0.052-1.036v-128.89
      			c0-22.009,17.905-39.914,39.914-39.914s39.914,17.906,39.914,39.914v128.89c0,0.383,0.02,0.717,0.052,1.024
      			c0.524,6.867,6.251,12.279,13.251,12.279h133.029c7.347,0,13.303-5.956,13.303-13.303V245.847
      			C455.549,238.499,449.593,232.543,442.246,232.543z"/>
      	</g>
      </g>
    </symbol>
  </defs>
</svg>
